<?xml version="1.0" encoding="UTF-8"?>
<svg version="1.1" xmlns="http://www.w3.org/2000/svg" width="512" height="512">
<path d="M0 0 C2.79253217 3.86992672 2.30578168 8.32786777 2.30078125 12.89453125 C2.30506638 13.76011154 2.3093515 14.62569183 2.31376648 15.51750183 C2.31950314 17.34735236 2.32001493 19.1772257 2.31567383 21.00708008 C2.31252293 23.79223075 2.33594929 26.5763094 2.36132812 29.36132812 C2.36360225 31.14322783 2.36430409 32.92513038 2.36328125 34.70703125 C2.372491 35.53330521 2.38170074 36.35957916 2.39118958 37.21089172 C2.33776213 43.96473432 1.04269237 48.65090378 -3.5 53.875 C-7.80368341 57.5331309 -11.80959298 57.25963319 -17.21875 57.23828125 C-19.83018821 57.01454848 -21.43454674 56.58996424 -23.75 55.4375 C-27.75070035 53.66795946 -29.821838 53.81750132 -34 55 C-37.20778162 57.19479795 -37.89134076 58.63327506 -39 62.375 C-39 66.83668484 -37.81998243 68.61602108 -35 72 C-31.92009655 73.53995173 -29.41257239 73.22377524 -26 73 C-24.88625 72.505 -23.7725 72.01 -22.625 71.5 C-17.04095715 69.18936158 -12.36907057 69.15071055 -6.6875 71.1875 C-2.12839788 74.26224329 0.31456581 77.81653783 2 83 C2.22705078 86.3215332 2.22705078 86.3215332 2.1953125 90.05078125 C2.1924826 90.70958786 2.18965271 91.36839447 2.18673706 92.04716492 C2.17560924 94.13580062 2.15051948 96.22399556 2.125 98.3125 C2.11496059 99.73501982 2.10583642 101.1575464 2.09765625 102.58007812 C2.07569447 106.05352681 2.04121646 109.52672033 2 113 C2.95777344 112.97905273 3.91554687 112.95810547 4.90234375 112.93652344 C8.48796376 112.86360521 12.07351953 112.81801442 15.65966797 112.78027344 C17.20567887 112.76027497 18.75161527 112.73306669 20.29736328 112.69824219 C36.38943675 112.34502689 36.38943675 112.34502689 43 117 C47.19659702 122.27264754 48.44701486 126.29477715 48 133 C47.2575 134.7015625 47.2575 134.7015625 46.5 136.4375 C44.63217275 140.87358972 44.4609814 143.22583521 45 148 C46.389089 151.04913936 46.389089 151.04913936 49 153 C52.98002449 154.15782531 55.02835714 154.45343333 58.8125 152.6875 C61.37604959 150.7099046 62.79428149 149.58776717 63.875 146.5 C64.0047797 142.86616826 63.47083723 141.33203201 62.0625 138.0625 C59.92486177 133.07964294 58.90221591 129.26251565 60.6953125 123.93359375 C62.82860568 119.06645847 65.21335334 116.54608865 70 114 C72.75324953 113.08225016 74.45653823 112.85983718 77.30029297 112.82299805 C78.59711502 112.80374519 78.59711502 112.80374519 79.9201355 112.78410339 C80.85141266 112.77671646 81.78268982 112.76932953 82.7421875 112.76171875 C83.70271027 112.753647 84.66323303 112.74557526 85.65286255 112.73725891 C87.68538615 112.72342934 89.71793286 112.71270215 91.75048828 112.70483398 C94.85624142 112.68760407 97.96093462 112.64370579 101.06640625 112.59960938 C103.04165885 112.58948362 105.01692048 112.58096715 106.9921875 112.57421875 C108.38303055 112.54795662 108.38303055 112.54795662 109.80197144 112.52116394 C113.99308565 112.5352437 116.39798184 112.65220959 120.08837891 114.78417969 C122.95434718 118.10621393 122.66067306 121.39004783 122.5 125.5625 C122.47123779 126.82126953 122.47123779 126.82126953 122.44189453 128.10546875 C121.20447728 163.95712533 105.27729772 193.00769415 83.9765625 220.984375 C77.81558793 229.08035339 72.12280711 237.20082543 67 246 C67.39832031 246.45890625 67.79664063 246.9178125 68.20703125 247.390625 C69.81446712 249.25227822 71.40906189 251.12423922 73 253 C73.5775 253.680625 74.155 254.36125 74.75 255.0625 C78.81176055 261.35822885 78.88959471 268.78157439 78 276 C76.84433543 278.80390748 75.54444614 281.23821019 73.8984375 283.78125 C72.72028123 286.03384522 72.72028123 286.03384522 73.75 288.59375 C74.69090578 290.40499362 75.65287971 292.20531639 76.625 294 C79.24545069 300.19993231 79.08057073 307.4941483 77.12109375 313.8515625 C73.83659614 321.02759359 69.37525923 325.19182541 62.5 328.875 C58.79506987 330.0658704 55.866269 330.23671035 52 330 C51.814375 331.216875 51.62875 332.43375 51.4375 333.6875 C48.24611389 347.85903973 38.65969508 359.09862614 26.9921875 367.2109375 C12.58908337 375.82271516 -4.31544221 378.19259924 -20.6875 374.875 C-34.59388622 371.21093991 -47.71881457 362.92723428 -56 351 C-59.93151681 344.20060319 -63.21062095 337.94439172 -64 330 C-64.969375 330.0825 -65.93875 330.165 -66.9375 330.25 C-73.06828087 330.23756434 -78.21188301 327.50996546 -82.8125 323.625 C-87.79312131 317.64825443 -90.47511528 312.54900089 -91.375 304.75 C-90.70915066 298.09150662 -88.07314366 291.9109565 -85 286 C-85.61875 285.175 -86.2375 284.35 -86.875 283.5 C-90.97168823 277.24562544 -91.46813357 271.01118373 -90.6015625 263.74609375 C-88.97948363 256.34140904 -85.04139882 251.35542706 -79 247 C-82.98044211 239.50300189 -87.56854802 232.67479381 -92.625 225.875 C-93.22957031 225.06023193 -93.83414063 224.24546387 -94.45703125 223.40600586 C-97.40506286 219.44672182 -100.37641234 215.50703183 -103.375 211.5859375 C-122.43660037 186.34965279 -134.05143563 157.79752727 -135 126 C-135.03996094 125.18144531 -135.07992187 124.36289062 -135.12109375 123.51953125 C-136.04313707 91.13953948 -122.68426767 61.39637832 -101.1171875 37.796875 C-83.31088625 18.95702564 -26.52945389 -17.59380101 0 0 Z " fill="#020201" transform="translate(232,133)"/>
<path d="M0 0 C4.81652761 3.10398446 7.40086573 7.59517388 10.17578125 12.51171875 C10.80774414 13.62538818 11.43970703 14.73905762 12.09082031 15.88647461 C12.76888265 17.0909817 13.44694248 18.2954902 14.125 19.5 C15.19704291 21.39267286 16.27069468 23.28442736 17.34439087 25.17616272 C18.07892118 26.4705867 18.81294609 27.7652976 19.54647827 29.06028748 C23.18279923 35.47757611 26.869503 41.8651544 30.5625 48.25 C31.79057689 50.37748163 33.01844459 52.50508403 34.24609375 54.6328125 C36.02913399 57.72289749 37.81262404 60.81271457 39.59814453 63.90136719 C41.27700373 66.80739139 42.95153826 69.71586516 44.625 72.625 C45.12290039 73.48472412 45.62080078 74.34444824 46.13378906 75.23022461 C52.27209121 85.92466963 52.27209121 85.92466963 51.75 91.25 C51.69714844 91.97058594 51.64429688 92.69117187 51.58984375 93.43359375 C49.94326893 98.47260915 46.550645 101.59603631 42.0703125 104.1484375 C40.70002248 104.84275271 39.32217602 105.52233787 37.9375 106.1875 C37.25558594 106.54199219 36.57367188 106.89648438 35.87109375 107.26171875 C32.2619436 109.04223282 30.18465103 109.82064929 26.06640625 109.73046875 C22.69911318 109.45442262 22.69911318 109.45442262 20.58203125 111.90234375 C19.61330078 113.31193359 19.61330078 113.31193359 18.625 114.75 C8.67441261 127.72041739 -5.97078724 134.37917776 -20.0546875 142.06738281 C-24.35805393 144.46455109 -28.5847623 146.9855085 -32.80664062 149.52294922 C-35.1875 150.8125 -35.1875 150.8125 -37.1875 150.8125 C-36.98253906 151.7303125 -36.77757812 152.648125 -36.56640625 153.59375 C-33.51946201 167.47265389 -33.51946201 167.47265389 -33.1875 172.8125 C-33.11144531 173.94042969 -33.03539062 175.06835938 -32.95703125 176.23046875 C-32.88548828 178.09638672 -32.88548828 178.09638672 -32.8125 180 C-32.76351562 181.16917969 -32.71453125 182.33835938 -32.6640625 183.54296875 C-33.36702944 187.93388909 -34.6766089 189.11436991 -38.1875 191.8125 C-41.26771879 192.54180384 -44.2707124 192.53414333 -47.42578125 192.51953125 C-48.30654831 192.53465256 -49.18731537 192.54977386 -50.09477234 192.56535339 C-52.89677588 192.6082029 -55.69770158 192.61706556 -58.5 192.625 C-60.40432547 192.6481465 -62.30862536 192.67351216 -64.21289062 192.70117188 C-68.87118891 192.76399697 -73.5288155 192.79635369 -78.1875 192.8125 C-77.70216797 193.89748779 -77.21683594 194.98247559 -76.71679688 196.1003418 C-73.83776955 202.5365737 -74.05139835 210.04064254 -76.06640625 216.73046875 C-79.31669468 223.82103195 -83.80140369 228.02710376 -90.625 231.625 C-98.13152174 234.12717391 -104.67492917 234.42816457 -112.1875 231.8125 C-119.76000246 227.54388169 -125.24465694 221.49040711 -127.6796875 213.09375 C-129.0536239 206.92160495 -128.34848715 202.87001438 -126.16015625 197.0546875 C-125.792854 196.07097168 -125.42555176 195.08725586 -125.04711914 194.07373047 C-124.76344482 193.32752441 -124.47977051 192.58131836 -124.1875 191.8125 C-125.37303467 191.83344727 -126.55856934 191.85439453 -127.7800293 191.87597656 C-132.18745804 191.94849331 -136.59483426 191.99434215 -141.00268555 192.03222656 C-142.9087003 192.05231546 -144.81465362 192.07959194 -146.72045898 192.11425781 C-149.46353326 192.16289642 -152.20579125 192.18549579 -154.94921875 192.203125 C-155.79836349 192.22377014 -156.64750824 192.24441528 -157.52238464 192.26568604 C-161.3343623 192.26712483 -163.75730014 192.01960263 -167.234375 190.34570312 C-170.11433125 186.61039986 -169.81815859 183.48325956 -169.67578125 178.890625 C-169.66516914 177.60064606 -169.66516914 177.60064606 -169.65434265 176.28460693 C-169.62639611 173.5430125 -169.5636598 170.803475 -169.5 168.0625 C-169.47491734 166.20185245 -169.45210411 164.34117283 -169.43164062 162.48046875 C-169.37656887 157.92368894 -169.29029655 153.36844296 -169.1875 148.8125 C-169.84556641 149.09544922 -170.50363281 149.37839844 -171.18164062 149.66992188 C-179.70697168 153.22891921 -186.51831819 154.37171363 -195.4375 151.25 C-202.22096294 148.15975577 -206.53475577 143.84596294 -209.625 137.0625 C-212.51178246 128.81455011 -212.11555648 121.04869085 -208.5078125 113.1015625 C-205.03443447 107.07967041 -200.16569895 103.01152459 -193.703125 100.47265625 C-184.59225778 98.08176097 -177.55861418 100.17711568 -169.1875 103.8125 C-169.21368408 102.65202148 -169.23986816 101.49154297 -169.2668457 100.29589844 C-169.3573961 95.98733832 -169.4147665 91.67886213 -169.4621582 87.36962891 C-169.48729147 85.50522719 -169.52140383 83.6409239 -169.56469727 81.77685547 C-169.62540352 79.09578169 -169.65372058 76.41601098 -169.67578125 73.734375 C-169.70158768 72.90194275 -169.7273941 72.0695105 -169.75398254 71.21185303 C-169.75678453 65.42094011 -169.75678453 65.42094011 -166.82348633 62.28588867 C-157.0618119 56.82958551 -139.20819528 62.04137006 -128.75 64.6796875 C-126.53873019 65.33929923 -124.35652482 66.0262982 -122.1875 66.8125 C-121.81625 64.9253125 -121.81625 64.9253125 -121.4375 63 C-119.35680199 53.87362805 -116.90163263 44.77402418 -109.1875 38.8125 C-102.28950114 34.56621978 -95.17529671 34.01320785 -87.23153687 33.45861816 C-83.76101356 33.21052749 -80.29669626 32.89673956 -76.83203125 32.578125 C-76.15751419 32.51614929 -75.48299713 32.45417358 -74.78804016 32.39031982 C-59.98422949 30.97398025 -45.49861723 26.46805861 -32.1875 19.8125 C-31.73741396 18.43320406 -31.35133374 17.03269291 -31 15.625 C-28.5279547 7.96650671 -23.02920942 5.1109585 -16.1875 1.4375 C-10.24400752 -1.38602947 -6.30321049 -2.34825489 0 0 Z " fill="#020201" transform="translate(449.1875,4.1875)"/>
<path d="M0 0 C0 9.24 0 18.48 0 28 C-6 26 -6 26 -8 25 C-16.4371634 24.16683011 -23.74102953 24.05443488 -30.90625 29.08203125 C-36.36934626 34.08647204 -39.58405537 39.56127661 -40.2734375 46.91796875 C-40.54425177 55.63610503 -39.339403 61.3101464 -33.35546875 67.77734375 C-27.64190838 73.05239159 -21.64790571 75.62628756 -13.8347168 75.35302734 C-10.70298709 74.96301088 -8.11714264 74.09604005 -5.171875 72.97265625 C-4.19831055 72.605354 -3.22474609 72.23805176 -2.22167969 71.85961914 C-1.12194824 71.43410767 -1.12194824 71.43410767 0 71 C0.00410889 72.12494873 0.00821777 73.24989746 0.01245117 74.40893555 C0.03426678 78.59331725 0.08858097 82.77676185 0.15258789 86.96069336 C0.17574685 88.76952108 0.19015869 90.57848325 0.19555664 92.38745117 C0.20486196 94.99222383 0.24588355 97.59488824 0.29296875 100.19921875 C0.2890361 101.00461594 0.28510345 101.81001312 0.28105164 102.63981628 C0.38394817 106.62308062 0.73749455 108.59881243 2.96679688 112.00585938 C7.12593805 114.74023358 10.35654107 114.72964007 15.23828125 114.70703125 C16.55943184 114.72971321 16.55943184 114.72971321 17.90727234 114.75285339 C20.70927588 114.7957029 23.51020158 114.80456556 26.3125 114.8125 C28.21682547 114.8356465 30.12112536 114.86101216 32.02539062 114.88867188 C36.68368891 114.95149697 41.3413155 114.98385369 46 115 C45.6833136 115.91967308 45.6833136 115.91967308 45.36022949 116.85792542 C44.94891785 118.0682267 44.94891785 118.0682267 44.52929688 119.30297852 C44.25629761 120.1017189 43.98329834 120.90045929 43.70202637 121.72340393 C41.57802927 128.61129827 42.22658328 135.17789459 45.4375 141.5625 C46.29043437 143.04237759 47.14441151 144.5216553 48 146 C48.33 146.99 48.66 147.98 49 149 C50.8664142 150.10528313 50.8664142 150.10528313 53 151 C54.11375 151.70125 55.2275 152.4025 56.375 153.125 C62.76619254 156.30862774 70.72318862 156.24768132 77.50390625 154.26953125 C84.56142062 150.98852362 88.78463307 145.68661612 92.05078125 138.7421875 C95.00529069 130.20693802 92.56366162 123.54553874 90 115 C99.9 115 109.8 115 120 115 C120 129.22116375 120 129.22116375 118.5625 135.4375 C118.39057129 136.18628418 118.21864258 136.93506836 118.04150391 137.70654297 C111.79448109 162.76158502 96.71999916 182.85460765 81.43017578 203.07617188 C79.98905168 204.98380614 78.55689929 206.89793803 77.125 208.8125 C76.721604 209.337229 76.31820801 209.86195801 75.90258789 210.40258789 C72.8568973 214.48178077 70.33588932 218.82313198 67.83154297 223.2487793 C67.46214096 223.89855492 67.09273895 224.54833054 66.71214294 225.21779633 C65.80664576 226.81104127 64.90312413 228.40540871 64 230 C49.58830855 230.42167498 35.17758075 230.73725376 20.76097393 230.93261909 C14.06552057 231.02520438 7.3744771 231.15349286 0.68139648 231.35791016 C-5.78346873 231.55411214 -12.24435234 231.661229 -18.71196556 231.70779037 C-21.17362375 231.74094694 -23.63507329 231.80570917 -26.09502602 231.90314102 C-44.90395033 232.61819304 -44.90395033 232.61819304 -50.09780693 228.22597694 C-53.65958923 223.92192287 -55.98037435 219.19440335 -58.09813404 214.05442333 C-59.23547296 211.46359973 -60.73474051 209.32656651 -62.49609375 207.12109375 C-62.9856958 206.49952393 -63.47529785 205.8779541 -63.97973633 205.23754883 C-64.46079834 204.64353271 -64.94186035 204.0495166 -65.4375 203.4375 C-66.53627092 202.03574519 -67.63255774 200.63204024 -68.7265625 199.2265625 C-69.26829102 198.53208008 -69.81001953 197.83759766 -70.36816406 197.12207031 C-83.82900003 179.61734466 -96.0486993 160.48377346 -102 139 C-102.19207031 138.31292969 -102.38414063 137.62585938 -102.58203125 136.91796875 C-104.22763211 130.34740417 -104.71394509 123.7522264 -105 117 C-105.03399902 116.19836426 -105.06799805 115.39672852 -105.10302734 114.57080078 C-106.23335092 83.67337712 -96.93761966 57.93975833 -76 35 C-58.88968515 16.97817675 -35.55628774 4.79298186 -11 1 C-10.16597656 0.87109375 -9.33195312 0.7421875 -8.47265625 0.609375 C-5.62803568 0.21843257 -2.87278931 0 0 0 Z " fill="#FED44E" transform="translate(218,147)"/>
<path d="M0 0 C6.03581954 -0.10397067 11.17285438 0.70537651 17 2.125 C17.92554688 2.34945801 18.85109375 2.57391602 19.8046875 2.80517578 C34.70180576 6.5578259 47.88927225 13.05192146 61 21 C59.33226675 27.17061304 56.10169144 32.4657867 53 38 C50.43836245 43.1232751 51.25520587 50.54518526 52.87109375 55.87109375 C56.15468224 62.94426633 60.56269459 66.97805564 67.1875 70.875 C74.66434278 73.08128148 81.45008082 73.14475285 88.5 69.625 C90.00867995 68.76505243 91.50948833 67.89106676 93 67 C94.32783182 66.32244198 95.6594347 65.65200222 97 65 C100.06941931 72.08514181 102.41698715 78.91908941 103.8125 86.5 C103.99776245 87.50450195 103.99776245 87.50450195 104.18676758 88.52929688 C104.79355996 92.06587697 105.04717009 95.4196751 105 99 C104.03175293 99.01458252 103.06350586 99.02916504 102.06591797 99.04418945 C98.45373676 99.10241567 94.84216317 99.17964536 91.23046875 99.26245117 C89.67099919 99.29558667 88.11141298 99.3236537 86.55175781 99.34643555 C84.30223148 99.38019281 82.05376313 99.43251504 79.8046875 99.48828125 C79.1138205 99.49467117 78.42295349 99.5010611 77.71115112 99.50764465 C71.5832216 99.69136383 67.70420913 101.51807901 63.125 105.5 C60.28230379 109.16799511 60.43072367 112.89798491 60.625 117.390625 C61.09744445 120.67805095 62.41881376 123.10115856 64 126 C64.54744239 130.37953911 64.31855157 132.41781955 62.1875 136.3125 C59.2761231 139.88933448 57.8089329 140.90717163 53.1875 141.4375 C48.35515326 141.33942654 46.30736915 139.38803669 43 136 C41.40628834 132.81257667 41.60717477 129.46995618 42 126 C42.495 125.05125 42.99 124.1025 43.5 123.125 C45.62604433 118.69574098 45.80208149 114.82776669 45 110 C42.86966004 104.92505682 40.05404751 102.76118518 34.98558044 100.64949036 C31.73680207 99.58680351 28.48089993 99.51980887 25.09765625 99.48828125 C24.01380898 99.46135445 24.01380898 99.46135445 22.9080658 99.43388367 C20.62626789 99.38019994 18.34467394 99.34602237 16.0625 99.3125 C14.50452915 99.27928964 12.94658509 99.24479659 11.38867188 99.20898438 C7.5925962 99.1244988 3.79657656 99.0574902 0 99 C-0.01401855 97.59306885 -0.01401855 97.59306885 -0.02832031 96.15771484 C-0.07249438 92.65713676 -0.13417667 89.15775697 -0.20751953 85.65771484 C-0.23563782 84.14676062 -0.25689771 82.63566179 -0.27099609 81.12451172 C-0.29255449 78.94423897 -0.33926316 76.76568781 -0.390625 74.5859375 C-0.41157227 73.2767334 -0.43251953 71.9675293 -0.45410156 70.61865234 C-1.17478623 65.84137678 -3.04536992 62.50728175 -6.89453125 59.5390625 C-11.42678127 57.37908998 -14.87981046 56.33627173 -20 57 C-20.94875 57.495 -21.8975 57.99 -22.875 58.5 C-26.99775641 60.47892308 -30.49865245 60.77094903 -35 60 C-37.87029869 58.20606332 -39.49131638 57.01736724 -41 54 C-41.54399285 49.460781 -41.62289461 46.0455731 -39.25 42.0625 C-35.64150943 38.75471698 -35.64150943 38.75471698 -33 38 C-29.02019504 38.22527198 -26.22654058 38.89092491 -22.625 40.625 C-18.02775704 42.36878181 -14.71277347 42.26189016 -10 41 C-5.52088606 38.67749647 -3.1850769 36.51639756 -1 32 C-0.49805995 28.424376 -0.49805995 28.424376 -0.48828125 24.51171875 C-0.47033005 23.80852005 -0.45237885 23.10532135 -0.43388367 22.3808136 C-0.3799952 20.14976883 -0.34595588 17.9189353 -0.3125 15.6875 C-0.27930776 14.16859053 -0.24481633 12.64970886 -0.20898438 11.13085938 C-0.12428305 7.42077584 -0.05736926 3.7106183 0 0 Z " fill="#FDD34E" transform="translate(295,81)"/>
<path d="M0 0 C3.57623498 1.93292982 4.89409433 5.25865167 6.65625 8.76171875 C7.5269918 10.40911795 8.40086173 12.05486639 9.27734375 13.69921875 C9.74640137 14.58609375 10.21545898 15.47296875 10.69873047 16.38671875 C13.4165893 21.41558701 16.32464261 26.33288787 19.21875 31.26171875 C19.81042969 32.27661377 20.40210938 33.29150879 21.01171875 34.3371582 C23.75709365 39.03989773 26.52615559 43.72392277 29.37109375 48.3671875 C29.84482422 49.14763428 30.31855469 49.92808105 30.80664062 50.73217773 C31.68142282 52.16920688 32.56626862 53.60017694 33.46289062 55.02368164 C36.2974369 59.69793449 36.2974369 59.69793449 35.89135742 62.28491211 C35.09933795 64.53907714 34.04121812 66.11143306 32.59375 68.01171875 C32.12710938 68.63691406 31.66046875 69.26210937 31.1796875 69.90625 C30.20902344 71.04126953 30.20902344 71.04126953 29.21875 72.19921875 C28.57957642 72.96177979 28.57957642 72.96177979 27.92749023 73.73974609 C22.46591296 79.7494417 15.55827305 83.33486454 8.53125 87.19921875 C7.3151429 87.87781009 6.09964395 88.55749248 4.88476562 89.23828125 C3.08619856 90.24591712 1.2869409 91.25206639 -0.51608276 92.25170898 C-5.5598373 95.05104187 -10.51893657 97.97871572 -15.46411133 100.94921875 C-17.78125 102.19921875 -17.78125 102.19921875 -19.78125 102.19921875 C-20.48554659 100.81178469 -21.16902598 99.4137724 -21.84375 98.01171875 C-22.22660156 97.23441406 -22.60945313 96.45710938 -23.00390625 95.65625 C-24.215314 91.8272275 -23.25930706 89.15723639 -21.49365234 85.61889648 C-20.95691895 84.71598877 -20.42018555 83.81308105 -19.8671875 82.8828125 C-18.97193359 81.36397461 -18.97193359 81.36397461 -18.05859375 79.81445312 C-17.43082031 78.76580078 -16.80304688 77.71714844 -16.15625 76.63671875 C-15.55167969 75.61513672 -14.94710937 74.59355469 -14.32421875 73.54101562 C-11.82369247 69.31571269 -9.3205969 65.09255117 -6.78295898 60.8894043 C-6.14946533 59.82890869 -5.51597168 58.76841309 -4.86328125 57.67578125 C-4.28811768 56.7213916 -3.7129541 55.76700195 -3.12036133 54.78369141 C-1.23717455 51.1491581 -0.84960105 49.17990062 -1.78125 45.19921875 C-3.90778361 42.75764313 -5.13359461 42.26240464 -8.34375 41.94921875 C-10.91812147 42.12385122 -10.91812147 42.12385122 -13.78125 43.19921875 C-14.84346455 45.49031324 -14.84346455 45.49031324 -15.78125 48.19921875 C-16.75654294 50.01709664 -17.76598822 51.81688333 -18.80078125 53.6015625 C-19.4050293 54.64691162 -20.00927734 55.69226074 -20.63183594 56.76928711 C-21.6029834 58.43616577 -21.6029834 58.43616577 -22.59375 60.13671875 C-23.26478309 61.29232091 -23.93567996 62.44800218 -24.60644531 63.60375977 C-26.32355391 66.55955063 -28.04579557 69.51231872 -29.76934814 72.46435547 C-30.75156997 74.14833358 -31.73105274 75.83390836 -32.71044922 77.51953125 C-34.4786965 80.56175748 -36.25361135 83.59997268 -38.03125 86.63671875 C-38.5672583 87.5589624 -39.1032666 88.48120605 -39.65551758 89.43139648 C-40.4061145 90.70672241 -40.4061145 90.70672241 -41.171875 92.0078125 C-41.60532227 92.74829834 -42.03876953 93.48878418 -42.48535156 94.25170898 C-44.62928402 97.47366626 -46.06499629 98.96046751 -49.78125 100.19921875 C-55.63284247 100.86166318 -55.63284247 100.86166318 -58.53515625 99.1875 C-62.28945641 96.17501336 -63.49454392 93.9739531 -64.25390625 89.2734375 C-64.15405745 83.23020793 -60.18944091 78.05316483 -57.21875 73.01171875 C-56.30512695 71.42133789 -56.30512695 71.42133789 -55.37304688 69.79882812 C-52.88071626 65.47087623 -50.38687237 61.15791768 -47.71923828 56.93505859 C-47.07067871 55.89172363 -46.42211914 54.84838867 -45.75390625 53.7734375 C-45.159729 52.84490967 -44.56555176 51.91638184 -43.95336914 50.9597168 C-42.50472832 47.54797304 -42.75275961 45.72135703 -43.78125 42.19921875 C-45.71292398 39.85108141 -45.71292398 39.85108141 -49.15625 39.82421875 C-52.73265526 39.89228271 -52.73265526 39.89228271 -54.96875 41.76171875 C-56.45664941 43.76268692 -57.67531959 45.68828218 -58.89453125 47.8515625 C-59.51714844 48.95628906 -60.13976562 50.06101563 -60.78125 51.19921875 C-61.68746094 50.67972656 -62.59367187 50.16023438 -63.52734375 49.625 C-70.25464291 45.772378 -76.98903253 41.93673524 -83.78125 38.19921875 C-83.07460001 35.79861346 -82.35888144 33.40145207 -81.62890625 31.0078125 C-81.09404209 29.23561282 -80.57831555 27.4574188 -80.08984375 25.671875 C-79.86425781 24.89714844 -79.63867188 24.12242188 -79.40625 23.32421875 C-79.11621094 22.27621094 -79.11621094 22.27621094 -78.8203125 21.20703125 C-77.33039137 18.32801073 -75.445959 17.0219271 -72.78125 15.19921875 C-69.99243164 14.64086914 -69.99243164 14.64086914 -66.94140625 14.546875 C-65.80703125 14.4957959 -64.67265625 14.4447168 -63.50390625 14.39208984 C-62.29605469 14.34906738 -61.08820313 14.30604492 -59.84375 14.26171875 C-41.85638782 13.27195024 -25.69794566 10.07620715 -9.2109375 2.70263672 C-6.05383063 1.31712008 -3.4552306 0.24749545 0 0 Z " fill="#FBDCC3" transform="translate(424.78125,38.80078125)"/>
<path d="M0 0 C1.02901932 -0.0071553 2.05803864 -0.01431061 3.11824036 -0.02168274 C4.25176437 -0.02437164 5.38528839 -0.02706055 6.55316162 -0.02983093 C7.7435051 -0.03640213 8.93384857 -0.04297333 10.16026306 -0.04974365 C14.11381383 -0.06951323 18.06735136 -0.08114775 22.02093506 -0.09111023 C23.38223033 -0.0951578 24.7435254 -0.09927472 26.10482025 -0.10346031 C32.50137498 -0.12251467 38.89791816 -0.1367442 45.29449582 -0.14507228 C52.6755773 -0.15484092 60.05635858 -0.18114926 67.4373343 -0.22157317 C73.14358086 -0.25175103 78.84974147 -0.26654279 84.55606627 -0.26985329 C87.96350019 -0.27220227 91.3706135 -0.2811418 94.77796173 -0.30631447 C98.58217894 -0.33060292 102.38560973 -0.32975909 106.18988037 -0.32279968 C107.31530746 -0.33560974 108.44073456 -0.3484198 109.6002655 -0.36161804 C115.74532859 -0.32060079 119.50194745 -0.05196983 124.13031006 4.14717102 C126.48651443 7.68147758 126.62022619 8.98288389 126.13031006 13.14717102 C123.98818779 17.1253981 122.34841967 19.5107384 118.13031006 21.14717102 C115.73394203 21.40723324 115.73394203 21.40723324 113.02011108 21.42132568 C111.47245811 21.43628838 111.47245811 21.43628838 109.89353943 21.45155334 C108.76720596 21.45221802 107.6408725 21.45288269 106.48040771 21.4535675 C105.28977219 21.46189102 104.09913666 21.47021454 102.87242126 21.47879028 C99.60993092 21.49875703 96.3475886 21.50953081 93.08504534 21.51461673 C91.04536742 21.51826299 89.00571396 21.52450443 86.96604538 21.53161812 C79.84631016 21.55610376 72.72664772 21.56916269 65.60687256 21.57270813 C58.97657644 21.57634331 52.34674325 21.60623906 45.71658862 21.64811271 C40.01878072 21.68283287 34.32112612 21.69825686 28.62321317 21.69895416 C25.22245761 21.69974638 21.82217385 21.70845815 18.42152786 21.73695183 C14.62694117 21.76377892 10.83363427 21.75906508 7.03900146 21.74653625 C5.35557396 21.76878769 5.35557396 21.76878769 3.63813782 21.79148865 C-4.85593965 21.71154604 -4.85593965 21.71154604 -8.55148315 18.73471069 C-11.2459885 15.72715351 -11.78395807 14.89018055 -12.24468994 10.89717102 C-11.75041698 5.95444144 -10.33140694 4.60888801 -6.86968994 1.14717102 C-4.40054694 -0.08740048 -2.76242334 0.01315474 0 0 Z " fill="#E8E8E8" transform="translate(168.86968994140625,426.8528289794922)"/>
<path d="M0 0 C1.55625595 -0.00856522 1.55625595 -0.00856522 3.14395142 -0.01730347 C4.29199249 -0.01842133 5.44003357 -0.01953918 6.62286377 -0.02069092 C7.82442108 -0.02565582 9.02597839 -0.03062073 10.26394653 -0.03573608 C13.56991898 -0.04787114 16.87582794 -0.05531017 20.18181515 -0.05974674 C22.24675459 -0.06267461 24.31168843 -0.06677895 26.37662506 -0.07125092 C32.8356552 -0.08493457 39.2946726 -0.09459598 45.75371623 -0.09845281 C53.21230291 -0.10293064 60.67070606 -0.12046196 68.12923694 -0.1494534 C73.89149945 -0.1710742 79.65371036 -0.18115736 85.416013 -0.18249393 C88.85857771 -0.18354202 92.3009701 -0.18945011 95.74349213 -0.20731354 C99.58615526 -0.22686387 103.42858958 -0.22250363 107.27130127 -0.21600342 C108.41124542 -0.2252182 109.55118958 -0.23443298 110.72567749 -0.243927 C112.29885239 -0.23557327 112.29885239 -0.23557327 113.90380859 -0.22705078 C114.81231945 -0.22851734 115.72083031 -0.2299839 116.6568718 -0.2314949 C120.58929958 0.34230452 123.24281687 2.17738718 126.01837158 4.95294189 C127.6269422 7.9160983 127.61392133 9.80803559 127.20587158 13.14044189 C125.48085706 16.93547384 124.05246947 18.61913674 120.20587158 20.14044189 C117.7754755 20.3977108 117.7754755 20.3977108 115.01301575 20.40786743 C113.96297363 20.4163974 112.91293152 20.42492737 111.83106995 20.43371582 C110.11116096 20.43235626 110.11116096 20.43235626 108.35650635 20.43096924 C106.5388829 20.44104507 106.5388829 20.44104507 104.68453979 20.45132446 C101.36422222 20.46706747 98.04415477 20.47367943 94.72381711 20.47495604 C92.64863531 20.47637846 90.57347966 20.48064975 88.49830437 20.48595047 C81.25652275 20.50444689 74.01481471 20.51262143 66.77301025 20.51104736 C60.02574652 20.50984551 53.27880244 20.53095705 46.53161961 20.56253469 C40.73531515 20.58869412 34.93911514 20.59941483 29.14275211 20.59813654 C25.6823041 20.59762688 22.22214031 20.60331237 18.76175117 20.62449265 C14.90258432 20.64746967 11.04385548 20.63835613 7.18463135 20.62628174 C6.04004959 20.63752075 4.89546783 20.64875977 3.71620178 20.66033936 C-4.00158332 20.59884571 -4.00158332 20.59884571 -7.9803009 18.2975769 C-10.36361924 15.46316217 -10.76166029 13.43265508 -11.16912842 9.76544189 C-10.69896249 5.22050455 -9.2385027 3.99675227 -5.79412842 1.14044189 C-4.15123271 -0.50245381 -2.26502466 0.00742852 0 0 Z " fill="#EFEFEF" transform="translate(167.79412841796875,391.85955810546875)"/>
<path d="M0 0 C27.72 0 55.44 0 84 0 C78.43121058 13.92197355 71.93683677 22.2854685 58.0625 28.4375 C47.62900945 31.88560514 32.96045719 31.85120713 23 27 C11.87171166 21.11679302 4.72643768 13.71808052 0 2 C0 1.34 0 0.68 0 0 Z " fill="#DEDDDF" transform="translate(184,463)"/>
<path d="M0 0 C1.96425986 0.24864049 3.92274191 0.54511024 5.875 0.875 C8.43634851 1.05851525 10.99897244 1.22496509 13.5625 1.375 C15.66697308 1.53775195 17.77126131 1.70301552 19.875 1.875 C18.41427861 5.80009536 16.57746571 9.32918138 14.49609375 12.9609375 C14.16780579 13.53547165 13.83951782 14.1100058 13.50128174 14.70195007 C12.44189152 16.5533545 11.37755098 18.40184705 10.3125 20.25 C9.58369082 21.51877044 8.85493117 22.78756934 8.1262207 24.05639648 C-8.04883721 52.18294574 -8.04883721 52.18294574 -13.125 53.875 C-18.97659247 54.53744443 -18.97659247 54.53744443 -21.87890625 52.86328125 C-25.63482212 49.84949816 -26.84105426 47.64966086 -27.59375 42.9453125 C-27.49275464 36.92662024 -23.58258884 31.77464435 -20.625 26.75 C-19.65759888 25.08626343 -19.65759888 25.08626343 -18.6706543 23.38891602 C-17.39548663 21.20009481 -16.11527523 19.01420279 -14.82958984 16.83154297 C-13.4078157 14.36553253 -12.077211 11.8904558 -10.80078125 9.34765625 C-5.96052915 0.16436873 -5.96052915 0.16436873 0 0 Z " fill="#FAC8A7" transform="translate(388.125,85.125)"/>
<path d="M0 0 C2.61791992 1.08227539 2.61791992 1.08227539 5.23046875 2.59765625 C6.19919922 3.15259766 7.16792969 3.70753906 8.16601562 4.27929688 C9.16310547 4.86775391 10.16019531 5.45621094 11.1875 6.0625 C12.16525391 6.62388672 13.14300781 7.18527344 14.15039062 7.76367188 C32.20508425 18.20508425 32.20508425 18.20508425 36 22 C36.67039106 28.9273743 36.67039106 28.9273743 34.4375 32.5 C31.07703013 34.56798146 28.91169372 34.31386056 25 34 C21.74609375 32.6105957 21.74609375 32.6105957 18.4375 30.67578125 C17.84251709 30.3325029 17.24753418 29.98922455 16.63452148 29.63554382 C14.74781724 28.54178811 12.8743349 27.42728944 11 26.3125 C9.74294611 25.58267617 8.48513868 24.85414863 7.2265625 24.12695312 C-9.21517434 14.56965131 -9.21517434 14.56965131 -11 11 C-11.54035146 6.94736402 -11.34199395 5.46269769 -8.875 2.125 C-5.4366892 -0.41636016 -4.17939417 -0.39197018 0 0 Z " fill="#000000" transform="translate(377,337)"/>
<path d="M0 0 C2.875 1.5 2.875 1.5 5 4 C5.94327177 9.40237467 5.94327177 9.40237467 5 12 C1.04004749 15.58610185 -2.97375643 18.31660405 -7.640625 20.953125 C-8.24888123 21.29881531 -8.85713745 21.64450562 -9.48382568 22.00067139 C-11.40274742 23.08943575 -13.32626357 24.1697703 -15.25 25.25 C-16.55499382 25.9890427 -17.85968416 26.72862154 -19.1640625 27.46875 C-31.77838681 34.61430743 -31.77838681 34.61430743 -37 34 C-40.32274404 31.54405875 -41.77618008 30.0743356 -42.625 26 C-41.60807687 21.11876898 -38.1728467 18.77386369 -34.125 16.10302734 C-32.578125 15.22831787 -32.578125 15.22831787 -31 14.3359375 C-29.865625 13.68882812 -28.73125 13.04171875 -27.5625 12.375 C-26.37513713 11.70808914 -25.18763591 11.04142452 -24 10.375 C-22.81207033 9.70127788 -21.62456637 9.02680455 -20.4375 8.3515625 C-18.25218919 7.10990863 -16.06490527 5.87171617 -13.875 4.63818359 C-11.99839502 3.56888847 -10.14242051 2.46229891 -8.3125 1.31494141 C-5.26790885 -0.41628409 -3.45372794 -0.50366866 0 0 Z " fill="#000000" transform="translate(81,337)"/>
<path d="M0 0 C3.106451 1.73650302 6.15891144 3.54349588 9.20410156 5.38525391 C10.24179688 5.99820313 11.27949219 6.61115234 12.34863281 7.24267578 C29.78528287 17.61011651 29.78528287 17.61011651 31.32910156 20.69775391 C31.6843006 24.53390348 31.8763475 26.84405025 29.76660156 30.13525391 C26.41637674 32.28283392 24.269495 32.00266071 20.32910156 31.69775391 C17.18286133 30.41601562 17.18286133 30.41601562 14.02050781 28.62744141 C13.16488503 28.14937546 13.16488503 28.14937546 12.29197693 27.66165161 C11.09231266 26.98763453 9.89662131 26.30650142 8.70483398 25.61865234 C6.90782828 24.58211371 5.09965227 23.56796075 3.28808594 22.55712891 C-13.45537928 13.12879223 -13.45537928 13.12879223 -15.67089844 8.69775391 C-15.9621331 5.34855528 -16.03552181 3.34018556 -14.35839844 0.38525391 C-10.09575556 -3.87738897 -4.84590376 -2.3627103 0 0 Z " fill="#000000" transform="translate(54.6708984375,150.30224609375)"/>
<path d="M0 0 C6.08577892 1.50734858 9.44826996 10.21155943 12.49267578 15.24755859 C13.57559844 17.08318063 14.64822478 18.9242869 15.71508789 20.76928711 C16.44838121 22.02984467 17.19036957 23.28538158 17.94067383 24.53588867 C19.03930629 26.36694277 20.11209876 28.21105346 21.18017578 30.06005859 C21.81753662 31.14552979 22.45489746 32.23100098 23.11157227 33.34936523 C24.63125497 37.25472306 24.33907274 39.55388968 23.37158203 43.58740234 C21.64892105 46.45850398 20.26401151 46.61927509 16.99658203 47.58740234 C13.37158203 47.58740234 13.37158203 47.58740234 10.94580078 45.58349609 C7.98533103 42.13785072 5.7864441 38.59294722 3.55908203 34.64990234 C2.9193042 33.53252686 2.9193042 33.53252686 2.26660156 32.39257812 C1.39243955 30.86563912 0.52068613 29.33731864 -0.34863281 27.80761719 C-1.5522529 25.7195361 -2.79299093 23.6606054 -4.05419922 21.60693359 C-4.42633545 20.99003662 -4.79847168 20.37313965 -5.18188477 19.73754883 C-6.19086264 18.06603411 -7.21009078 16.40071906 -8.22998047 14.73583984 C-10.1600003 10.39059966 -10.40731218 6.61252728 -8.69091797 2.14990234 C-5.82259307 -0.02307107 -3.55650054 -0.24969738 0 0 Z " fill="#000000" transform="translate(124.62841796875,72.41259765625)"/>
<path d="M0 0 C0.96147949 -0.0038269 1.92295898 -0.00765381 2.91357422 -0.01159668 C4.9443466 -0.01431602 6.97515399 -0.00695329 9.00585938 0.00976562 C12.1140757 0.03117475 15.21998056 0.00996454 18.328125 -0.015625 C20.30208843 -0.01298173 22.27605043 -0.00785676 24.25 0 C25.17925293 -0.00809692 26.10850586 -0.01619385 27.06591797 -0.02453613 C33.46441375 0.06844108 33.46441375 0.06844108 36.71484375 2.34570312 C38.77897911 5.54482704 38.59049916 7.8072567 38.125 11.53125 C36.36484869 14.7162857 35.62609084 15.36421972 32.125 16.53125 C29.16144067 16.65266211 26.22217429 16.7194444 23.2578125 16.734375 C22.38607391 16.74007507 21.51433533 16.74577515 20.61618042 16.75164795 C18.77196464 16.76109183 16.92773203 16.7676295 15.08349609 16.77148438 C12.26760314 16.78118933 9.45244041 16.81221786 6.63671875 16.84375 C4.84375433 16.85028043 3.05078469 16.85553075 1.2578125 16.859375 C0.41807892 16.8717218 -0.42165466 16.8840686 -1.28683472 16.89678955 C-5.96968914 16.87901735 -9.07822445 16.58989292 -12.875 13.53125 C-14.42086876 10.43951248 -14.16859521 7.93695448 -13.875 4.53125 C-10.48556418 -0.77005421 -5.68185417 -0.04950809 0 0 Z " fill="#000000" transform="translate(402.875,251.46875)"/>
<path d="M0 0 C1.30166359 -0.01902626 1.30166359 -0.01902626 2.62962341 -0.03843689 C3.56403763 -0.03550125 4.49845184 -0.03256561 5.46118164 -0.02954102 C6.42407608 -0.03478287 7.38697052 -0.04002472 8.37904358 -0.04542542 C10.41577185 -0.05184977 12.4525372 -0.05050328 14.48925781 -0.04199219 C17.6062226 -0.0334885 20.72135142 -0.06222792 23.83813477 -0.09399414 C25.81664984 -0.09560638 27.79516816 -0.09502819 29.77368164 -0.09204102 C31.17226662 -0.10889198 31.17226662 -0.10889198 32.59910583 -0.12608337 C39.05765686 -0.05651694 39.05765686 -0.05651694 42.2722168 2.30786133 C44.67222347 5.87175916 44.15370143 8.17528088 43.68383789 12.40405273 C41.87220522 15.07836763 40.80622712 15.36325632 37.68383789 16.40405273 C34.70847168 16.51350206 31.7572417 16.56811145 28.78149414 16.57202148 C27.90738388 16.57534988 27.03327362 16.57867828 26.13267517 16.58210754 C24.28425625 16.58716922 22.43582819 16.5895161 20.58740234 16.58935547 C17.76067039 16.59154165 14.93432891 16.60970444 12.10766602 16.62866211 C10.31144339 16.63159625 8.51521891 16.63358091 6.71899414 16.63452148 C5.87409927 16.641707 5.02920441 16.64889252 4.15870667 16.65629578 C3.36786179 16.65321915 2.57701691 16.65014252 1.76220703 16.64697266 C1.06954239 16.64839767 0.37687775 16.64982269 -0.33677673 16.65129089 C-2.69349907 16.35692088 -4.28389133 15.61674863 -6.31616211 14.40405273 C-8.41295614 11.7081747 -8.31127032 10.31110874 -8.12866211 6.84155273 C-6.93080278 1.77368636 -5.22190132 0.03698099 0 0 Z " fill="#000000" transform="translate(19.316162109375,251.595947265625)"/>
<path d="M0 0 C3.4375 0.5625 3.4375 0.5625 5.61694336 1.99633789 C8.37889067 5.88943541 8.02950163 9.51725689 8.00390625 14.18359375 C8.01320412 15.58896141 8.01320412 15.58896141 8.02268982 17.02272034 C8.02978678 19.00219688 8.02661612 20.98173312 8.01391602 22.96118164 C8.00006269 25.98630977 8.03410706 29.00833686 8.07226562 32.03320312 C8.07321697 33.95833409 8.07135718 35.88346892 8.06640625 37.80859375 C8.07966446 38.71081161 8.09292267 39.61302948 8.10658264 40.54258728 C8.04022601 45.03023113 7.8886028 46.97105203 5.08959961 50.64086914 C2.4375 52.5625 2.4375 52.5625 -0.625 53.0625 C-3.84125747 52.51505192 -5.2700691 51.8549309 -7.5625 49.5625 C-8.45166144 46.89501569 -8.70547987 45.27888011 -8.75537109 42.53759766 C-8.77143402 41.73311188 -8.78749695 40.9286261 -8.80404663 40.09976196 C-8.84864742 36.43110163 -8.88954261 32.76261805 -8.91259766 29.09375 C-8.92916959 27.15970843 -8.95647593 25.22572841 -8.99462891 23.29199219 C-9.04942096 20.49902689 -9.07127242 17.70749297 -9.0859375 14.9140625 C-9.10860687 14.05245514 -9.13127625 13.19084778 -9.15463257 12.3031311 C-9.13923337 7.92230534 -8.97816726 6.11118781 -6.25244141 2.51318359 C-3.5625 0.5625 -3.5625 0.5625 0 0 Z " fill="#000000" transform="translate(226.5625,44.4375)"/>
<path d="M0 0 C3.06942939 2.83998975 5.09918742 5.59862585 7.1015625 9.26171875 C7.66866943 10.289021 8.23577637 11.31632324 8.82006836 12.37475586 C9.71350952 14.01456421 9.71350952 14.01456421 10.625 15.6875 C11.88793429 17.97472564 13.15225999 20.26118353 14.41796875 22.546875 C15.03333496 23.65998047 15.64870117 24.77308594 16.28271484 25.91992188 C18.44305956 29.79466014 20.67105462 33.62414641 22.9375 37.4375 C23.71354631 38.75260143 24.48958778 40.06770571 25.265625 41.3828125 C26.80465907 43.98632531 28.34986351 46.58592249 29.90039062 49.18261719 C31.65773914 52.12686561 33.40136877 55.07894571 35.13845825 58.03518677 C35.83369054 59.21306701 36.53341507 60.38830812 37.23776245 61.5607605 C38.22595241 63.20686168 39.1973116 64.86303097 40.16796875 66.51953125 C40.73797607 67.47964111 41.3079834 68.43975098 41.89526367 69.42895508 C43 72 43 72 42.79418945 74.2644043 C42 76 42 76 40.125 77.25 C38 78 38 78 35 78 C33.47623463 75.35880669 31.9524704 72.71761273 30.42871094 70.07641602 C29.08432862 67.74616432 27.73993029 65.41592188 26.39550781 63.08569336 C22.9468146 57.10817017 19.49840815 51.13048203 16.05078125 45.15234375 C15.41873779 44.05656006 14.78669434 42.96077637 14.13549805 41.83178711 C12.88273616 39.65960863 11.63029255 37.48724655 10.37817383 35.31469727 C7.4791465 30.28671478 4.57370966 25.26276584 1.6484375 20.25 C1.13506836 19.36884521 0.62169922 18.48769043 0.09277344 17.57983398 C-0.85732268 15.95035277 -1.80965223 14.32217088 -2.76464844 12.69555664 C-3.18004883 11.98262451 -3.59544922 11.26969238 -4.0234375 10.53515625 C-4.38356934 9.920354 -4.74370117 9.30555176 -5.11474609 8.67211914 C-6 7 -6 7 -7 4 C-4.69 2.68 -2.38 1.36 0 0 Z " fill="#C3E9F7" transform="translate(441,19)"/>
</svg>
